<?xml version="1.0" standalone="no"?>
<!DOCTYPE svg PUBLIC "-//W3C//DTD SVG 20010904//EN"
 "http://www.w3.org/TR/2001/REC-SVG-20010904/DTD/svg10.dtd">
<svg version="1.0" xmlns="http://www.w3.org/2000/svg"
 width="3710.000000pt" height="1080.000000pt" viewBox="0 0 3710.000000 1080.000000"
 preserveAspectRatio="xMidYMid meet">

<g transform="translate(0.000000,1080.000000) scale(0.100000,-0.100000)"
fill="#000000" stroke="none">
<path d="M5165 10794 c-1535 -73 -2944 -775 -3927 -1960 -548 -660 -941 -1472
-1117 -2309 -81 -385 -114 -712 -114 -1125 0 -672 107 -1276 336 -1885 510
-1361 1555 -2471 2872 -3050 709 -312 1407 -458 2185 -458 778 0 1476 146
2185 458 1225 539 2232 1553 2765 2785 302 697 443 1383 443 2150 0 330 -14
524 -59 820 -215 1403 -972 2659 -2114 3510 -800 596 -1728 951 -2729 1045
-164 15 -576 26 -726 19z m1296 -3998 c232 -255 242 -264 267 -255 15 6 322
125 683 265 638 247 659 254 728 254 l71 0 0 -620 0 -620 -902 1 -903 1 -210
231 -211 232 -539 2 -540 2 -490 -479 -490 -479 -418 -1 c-332 0 -417 3 -411
13 4 6 281 396 616 865 l609 852 949 0 949 0 242 -264z m1253 -1338 c-2 -7
-278 -395 -613 -863 l-608 -850 -324 -6 c-427 -8 -1369 -8 -1490 0 l-95 6
-238 260 c-131 143 -243 259 -249 257 -7 -1 -311 -119 -676 -262 l-663 -260
-79 0 -79 0 0 615 0 615 904 0 904 0 214 -235 213 -235 530 0 530 1 495 484
495 484 417 1 c330 0 416 -3 412 -12z"/>
<path d="M12246 9874 c-70 -22 -139 -94 -156 -162 -26 -111 16 -206 116 -258
32 -18 96 -44 141 -58 100 -33 142 -60 165 -106 37 -73 7 -165 -67 -207 -83
-47 -220 -23 -280 49 l-26 30 -40 -27 -40 -28 33 -35 c119 -124 351 -129 465
-10 43 44 63 96 63 161 0 133 -62 198 -245 257 -97 31 -164 69 -181 102 -20
39 -18 117 6 155 28 46 86 73 159 73 73 0 106 -12 148 -52 l31 -30 37 28 37
28 -40 37 c-69 65 -211 88 -326 53z"/>
<path d="M14737 9866 c-265 -95 -375 -406 -236 -667 127 -238 477 -300 673
-119 25 24 46 48 46 54 0 6 -14 20 -30 30 l-30 17 -50 -44 c-62 -56 -122 -77
-216 -77 -142 0 -253 70 -316 198 -31 63 -33 72 -33 177 0 98 3 116 27 167 35
75 95 138 165 174 52 26 68 29 153 29 104 0 154 -17 215 -76 l31 -29 37 27 37
27 -32 33 c-18 19 -62 48 -98 66 -58 29 -75 32 -170 35 -91 2 -114 -1 -173
-22z"/>
<path d="M13290 9435 l0 -435 281 0 280 0 -3 38 -3 37 -232 3 -233 2 0 165 0
165 210 0 210 0 0 40 0 40 -210 0 -210 0 0 150 0 150 225 0 225 0 0 40 0 40
-270 0 -270 0 0 -435z"/>
<path d="M15850 9435 l0 -435 50 0 50 0 0 200 0 200 73 0 72 0 116 -198 117
-197 56 -3 c31 -2 56 -1 56 2 0 2 -52 89 -116 192 -64 104 -118 194 -121 200
-3 7 16 19 48 29 110 37 166 123 157 240 -6 74 -30 117 -85 155 -57 39 -124
50 -305 50 l-168 0 0 -435z m394 329 c71 -37 98 -133 56 -202 -32 -53 -91 -73
-231 -79 l-119 -6 0 158 0 157 128 -3 c104 -3 134 -8 166 -25z"/>
<path d="M17090 9435 l0 -435 281 0 280 0 -3 38 -3 37 -232 3 -233 2 0 165 0
165 210 0 210 0 0 40 0 40 -210 0 -210 0 0 150 0 150 225 0 225 0 0 40 0 40
-270 0 -270 0 0 -435z"/>
<path d="M18230 9830 l0 -40 145 0 145 0 0 -395 0 -395 50 0 50 0 0 395 0 395
145 0 145 0 0 40 0 40 -340 0 -340 0 0 -40z"/>
<path d="M19530 9487 c-90 -210 -174 -406 -187 -435 l-23 -53 52 3 51 3 45
108 45 107 226 0 227 0 45 -110 44 -110 52 0 52 0 -33 78 c-18 42 -102 238
-186 435 l-153 357 -46 0 -46 0 -165 -383z m309 38 l87 -210 -93 -3 c-51 -1
-135 -1 -187 0 l-95 3 92 222 c59 143 95 218 100 210 5 -6 48 -106 96 -222z"/>
<path d="M20780 9435 l0 -435 45 0 45 0 0 200 0 200 74 0 75 0 118 -200 118
-200 57 0 58 0 -67 108 c-36 59 -88 143 -115 186 -76 123 -75 111 -15 131 67
22 112 56 137 105 47 92 34 197 -34 265 -62 61 -122 75 -329 75 l-167 0 0
-435z m355 344 c21 -6 54 -26 72 -44 30 -30 33 -38 33 -93 0 -51 -4 -65 -27
-93 -40 -47 -81 -60 -219 -66 l-124 -6 0 156 0 157 113 0 c61 0 130 -5 152
-11z"/>
<path d="M22010 9435 l0 -435 45 0 45 0 0 435 0 435 -45 0 -45 0 0 -435z"/>
<path d="M22925 9474 c-93 -217 -178 -413 -187 -435 l-18 -40 53 3 52 3 44
108 44 107 226 0 227 0 45 -107 44 -108 53 -3 53 -3 -14 33 c-8 18 -92 214
-187 436 l-173 402 -46 0 -46 -1 -170 -395z m311 59 l91 -218 -94 -3 c-51 -1
-135 -1 -187 0 l-94 3 91 218 c49 119 93 217 97 217 3 0 47 -98 96 -217z"/>
<path d="M25030 9435 l0 -435 183 0 c202 0 247 8 350 63 278 147 285 572 13
736 -96 58 -165 71 -368 71 l-178 0 0 -435z m355 344 c120 -22 215 -94 263
-198 36 -77 38 -210 4 -285 -32 -71 -66 -112 -125 -151 -73 -48 -149 -65 -289
-65 l-118 0 0 355 0 355 103 0 c57 0 130 -5 162 -11z"/>
<path d="M26653 9813 c-14 -32 -97 -224 -185 -428 -88 -203 -162 -373 -164
-377 -3 -5 19 -8 48 -8 l53 0 44 110 44 110 227 0 227 0 45 -107 44 -108 52
-3 53 -3 -14 33 c-8 18 -92 214 -187 436 l-172 402 -45 0 -44 0 -26 -57z m164
-280 l90 -218 -93 -3 c-52 -1 -136 -1 -187 0 l-94 3 90 218 c50 119 93 217 97
217 4 0 48 -98 97 -217z"/>
<path d="M25671 8920 c-104 -22 -185 -89 -236 -196 -27 -56 -55 -161 -55 -206
l0 -28 130 0 c123 0 130 1 130 20 0 10 14 35 31 55 29 32 35 35 87 35 48 0 75
-9 172 -55 179 -85 264 -101 370 -69 133 39 218 147 255 321 26 122 34 113
-110 113 -111 0 -126 -2 -131 -17 -43 -135 -99 -144 -301 -51 -65 31 -134 60
-153 66 -53 16 -140 22 -189 12z"/>
<path d="M17184 8371 c-316 -57 -582 -212 -755 -440 -68 -90 -153 -266 -184
-380 -114 -431 -1 -885 295 -1181 160 -160 344 -259 590 -317 141 -33 389 -42
535 -19 530 81 902 419 1011 918 22 99 29 331 15 441 -58 432 -334 772 -746
917 -168 59 -241 71 -460 76 -163 3 -218 0 -301 -15z m358 -682 c214 -46 348
-226 348 -469 -1 -218 -94 -381 -267 -463 -63 -30 -76 -32 -173 -32 -98 0
-110 2 -175 33 -159 75 -250 220 -262 419 -7 111 7 194 49 283 84 175 283 271
480 229z"/>
<path d="M23575 8375 c-496 -91 -849 -418 -956 -885 -29 -124 -36 -356 -15
-485 43 -257 156 -475 336 -649 99 -96 191 -159 313 -216 86 -40 232 -87 305
-97 23 -3 42 -8 42 -10 0 -3 -37 -48 -82 -102 -45 -53 -88 -103 -95 -112 -12
-15 -6 -22 54 -66 l68 -50 106 5 c100 4 108 3 128 -17 27 -27 24 -48 -10 -74
-22 -16 -42 -19 -115 -18 -49 1 -118 8 -154 16 -109 26 -98 33 -152 -90 -26
-60 -48 -115 -48 -122 0 -15 96 -45 200 -64 118 -21 348 -17 442 9 236 64 338
205 282 391 -31 107 -125 167 -280 180 l-73 6 48 50 c48 50 50 51 144 68 229
40 440 137 579 266 l49 46 -231 277 -230 276 -50 -48 c-28 -27 -84 -66 -124
-86 -123 -60 -275 -59 -404 4 -128 62 -226 207 -241 356 -28 291 116 505 368
548 144 25 314 -24 407 -117 l43 -43 232 281 233 280 -30 24 c-141 116 -347
212 -554 258 -106 24 -427 29 -535 10z"/>
<path d="M28310 8385 c-8 -2 -49 -9 -90 -15 -100 -16 -267 -71 -360 -117 -314
-159 -530 -443 -595 -784 -68 -359 19 -741 229 -1006 225 -284 585 -443 999
-443 703 0 1216 467 1244 1131 15 359 -85 643 -306 872 -131 136 -270 225
-446 287 -169 59 -241 71 -460 75 -110 2 -207 2 -215 0z m272 -696 c121 -26
240 -114 292 -218 52 -101 70 -260 45 -383 -29 -143 -128 -270 -256 -331 -63
-30 -76 -32 -173 -32 -98 0 -110 2 -177 34 -204 95 -308 346 -248 599 57 239
278 381 517 331z"/>
<path d="M12042 7208 l3 -1123 378 -3 377 -2 0 358 0 359 178 6 c274 9 445 47
598 132 99 55 228 187 277 285 60 122 72 182 71 365 0 145 -3 168 -27 240 -82
250 -275 407 -582 476 -96 22 -123 23 -688 26 l-587 4 2 -1123z m1056 503 c58
-29 82 -72 82 -141 0 -77 -24 -118 -91 -155 -49 -26 -64 -29 -171 -33 l-118
-4 0 182 0 182 128 -4 c107 -4 134 -8 170 -27z"/>
<path d="M14140 7206 l0 -1126 365 0 365 0 0 400 c0 316 3 400 13 400 7 0 109
-180 227 -400 l214 -400 433 0 c238 0 433 2 433 5 0 3 -124 203 -275 443 -151
241 -277 445 -280 453 -3 9 12 23 51 43 72 38 190 149 233 220 78 129 110 288
92 451 -37 327 -236 528 -601 607 -89 20 -135 21 -682 25 l-588 4 0 -1125z
m1050 508 c54 -31 80 -77 80 -141 0 -58 -15 -96 -52 -130 -43 -41 -96 -55
-225 -61 l-123 -5 0 183 0 182 143 -3 c121 -4 147 -7 177 -25z"/>
<path d="M18780 8010 l0 -320 275 0 275 0 2 -802 3 -803 378 -3 377 -2 0 805
0 805 280 0 280 0 0 320 0 320 -935 0 -935 0 0 -320z"/>
<path d="M20810 7205 l0 -1125 800 0 800 0 0 315 0 315 -440 0 -440 0 0 105 0
105 390 0 390 0 0 295 0 295 -390 0 -390 0 0 95 0 95 415 0 415 0 0 315 0 315
-775 0 -775 0 0 -1125z"/>
<path d="M25561 8308 c-5 -13 -203 -515 -440 -1116 -237 -601 -431 -1097 -431
-1102 0 -6 143 -10 398 -10 l398 0 54 165 54 165 357 0 357 0 58 -165 59 -165
412 0 412 0 -12 34 c-7 18 -203 524 -437 1124 l-425 1092 -403 0 -402 0 -9
-22z m491 -1050 l86 -263 -175 -3 c-97 -1 -177 -1 -179 1 -5 5 170 527 176
527 4 0 45 -118 92 -262z"/>
<path d="M30620 7205 l0 -1125 800 0 800 0 0 315 0 315 -445 0 -445 0 0 105 0
105 395 0 395 0 -2 293 -3 292 -392 3 -393 2 0 95 0 95 420 0 420 0 0 315 0
315 -775 0 -775 0 0 -1125z"/>
<path d="M22297 5468 c-312 -19 -563 -121 -742 -302 -169 -171 -245 -376 -232
-631 12 -247 116 -423 331 -563 88 -57 208 -109 426 -184 290 -99 370 -147
370 -223 0 -44 -38 -88 -88 -103 -54 -17 -184 -15 -262 3 -93 22 -232 94 -324
168 l-79 63 -235 -255 c-129 -141 -249 -271 -266 -289 l-31 -34 30 -25 c173
-145 461 -276 735 -334 144 -31 470 -34 600 -5 226 49 397 135 539 270 171
164 249 340 258 587 9 218 -27 334 -145 475 -130 154 -295 248 -651 369 -245
83 -292 104 -315 137 -27 38 -16 95 23 125 44 34 191 46 286 23 87 -21 206
-85 273 -146 l64 -57 89 89 c50 49 171 173 271 276 l180 187 -37 32 c-193 170
-458 290 -732 333 -124 19 -201 23 -336 14z"/>
<path d="M28440 5470 c-268 -18 -518 -101 -730 -243 -98 -65 -283 -252 -345
-347 -66 -102 -139 -257 -169 -364 -83 -287 -71 -647 28 -909 167 -442 521
-739 1014 -850 84 -19 127 -21 322 -21 194 0 239 3 327 22 245 53 480 168 632
309 l52 48 -267 321 -268 321 -51 -51 c-165 -163 -401 -202 -614 -101 -127 61
-236 198 -272 345 -20 79 -17 251 5 324 69 232 232 366 461 383 161 12 308
-37 419 -138 l54 -49 267 322 267 322 -33 29 c-197 170 -545 305 -828 322 -47
3 -104 7 -126 9 -22 1 -87 -1 -145 -4z"/>
<path d="M12040 4101 l0 -1301 573 0 c606 0 732 7 917 50 299 71 505 181 690
369 191 194 293 407 331 689 17 125 6 432 -19 547 -73 337 -275 601 -579 758
-103 53 -260 108 -378 132 -230 47 -254 48 -907 52 l-628 4 0 -1300z m1131
549 c250 -29 417 -150 480 -350 27 -83 29 -262 5 -364 -34 -142 -115 -246
-240 -305 -107 -51 -167 -62 -358 -68 l-178 -5 0 551 0 551 103 0 c56 0 141
-5 188 -10z"/>
<path d="M14880 4100 l0 -1300 925 0 925 0 0 365 0 365 -515 0 -515 0 0 120 0
120 455 0 455 0 0 340 0 340 -455 0 -455 0 0 110 0 110 483 2 482 3 3 363 2
362 -895 0 -895 0 0 -1300z"/>
<path d="M17100 4100 l0 -1300 430 0 430 0 0 440 0 440 395 0 395 0 0 360 0
360 -395 0 -395 0 0 135 0 135 445 0 445 0 0 365 0 365 -875 0 -875 0 0 -1300z"/>
<path d="M19190 4100 l0 -1300 925 0 925 0 0 365 0 365 -515 0 -515 0 0 120 0
120 455 0 455 0 0 340 0 340 -455 0 -455 0 0 110 0 110 485 0 485 0 0 365 0
365 -895 0 -895 0 0 -1300z"/>
<path d="M24317 5393 c-7 -12 -1009 -2555 -1015 -2576 -4 -16 21 -17 458 -15
l463 3 62 185 62 185 414 3 414 2 66 -187 66 -188 477 -3 c262 -1 476 0 476 2
0 2 -227 586 -504 1297 l-505 1294 -465 3 c-255 1 -467 -1 -469 -5z m558
-1222 c52 -162 95 -300 95 -307 0 -11 -39 -14 -205 -14 -113 0 -205 1 -205 3
0 4 199 600 206 617 4 8 8 11 10 5 2 -5 46 -142 99 -304z"/>
<path d="M29740 4100 l0 -1300 440 0 440 0 0 1300 0 1300 -440 0 -440 0 0
-1300z"/>
<path d="M30780 5393 c0 -5 206 -590 457 -1300 l458 -1293 485 0 485 0 468
1293 c257 711 467 1296 467 1300 0 4 -222 7 -493 7 l-492 0 -204 -800 c-113
-440 -208 -800 -212 -800 -5 0 -12 15 -17 33 -5 17 -100 377 -213 799 l-204
768 -492 0 c-271 0 -493 -3 -493 -7z"/>
<path d="M33752 4103 l3 -1298 443 -3 442 -2 0 1300 0 1300 -445 0 -445 0 2
-1297z"/>
<path d="M35090 4100 l0 -1300 870 0 870 0 0 380 0 380 -430 0 -430 0 0 920 0
920 -440 0 -440 0 0 -1300z"/>
<path d="M15124 2159 c-144 -18 -238 -63 -319 -151 -71 -77 -100 -162 -93
-276 10 -170 93 -252 341 -339 122 -42 153 -58 165 -81 22 -42 -13 -72 -85
-72 -64 0 -136 26 -202 74 l-50 35 -121 -129 c-67 -72 -118 -134 -115 -140 15
-25 160 -102 245 -131 112 -38 267 -50 372 -29 150 29 280 124 334 243 36 80
45 200 20 274 -34 103 -136 186 -297 242 -205 71 -221 81 -199 121 13 24 32
30 93 30 61 0 129 -28 173 -71 l31 -30 123 131 c139 148 136 127 27 200 -67
45 -182 85 -282 100 -78 11 -75 11 -161 -1z"/>
<path d="M21356 2159 c-154 -21 -280 -84 -384 -194 -74 -78 -123 -168 -147
-268 -19 -81 -19 -246 0 -322 56 -219 226 -388 451 -445 97 -25 260 -27 353
-4 85 21 195 74 249 122 l43 37 -122 147 -123 147 -35 -31 c-49 -43 -91 -58
-166 -58 -133 0 -221 86 -232 225 -6 75 8 129 48 184 78 108 259 121 359 26
l25 -24 122 147 122 147 -37 33 c-106 96 -344 155 -526 131z"/>
<path d="M12040 1536 l0 -596 278 0 c152 0 306 5 342 10 225 36 393 146 474
311 51 103 69 200 63 325 -15 273 -156 441 -432 516 -72 19 -112 22 -402 26
l-323 4 0 -596z m628 218 c76 -39 115 -100 120 -189 12 -179 -87 -275 -285
-275 l-73 0 0 251 0 252 91 -5 c74 -5 101 -11 147 -34z"/>
<path d="M13340 1535 l0 -595 425 0 425 0 -2 168 -3 167 -232 3 -233 2 0 50 0
50 205 0 205 0 0 160 0 160 -205 0 -205 0 0 50 0 50 220 0 220 0 0 165 0 165
-410 0 -410 0 0 -595z"/>
<path d="M16069 2103 c-31 -82 -452 -1149 -456 -1155 -2 -5 93 -8 211 -8 l215
0 27 85 28 85 191 0 190 0 29 -85 29 -85 220 0 c174 0 218 3 214 13 -22 57
-429 1102 -442 1135 l-17 42 -214 0 -214 0 -11 -27z m270 -543 c22 -69 41
-128 41 -133 0 -4 -40 -7 -90 -7 -64 0 -90 4 -90 12 0 25 85 267 91 260 4 -4
25 -63 48 -132z"/>
<path d="M17040 1535 l0 -595 191 0 192 0 -7 283 -7 282 59 -100 c33 -55 106
-181 164 -280 l104 -180 207 -3 207 -2 0 595 0 595 -191 0 -192 0 7 -297 c5
-207 4 -293 -3 -283 -6 8 -82 142 -168 297 l-158 282 -202 1 -203 0 0 -595z"/>
<path d="M18232 1963 l3 -168 148 -3 147 -3 0 -424 0 -425 200 0 200 0 0 425
0 425 145 0 145 0 0 170 0 170 -495 0 -495 0 2 -167z"/>
<path d="M19328 1552 c-125 -317 -230 -585 -234 -594 -6 -17 8 -18 208 -18
l214 0 28 85 27 85 189 0 188 0 16 -42 c9 -24 22 -61 30 -83 l13 -40 221 -3
220 -2 -79 202 c-43 112 -148 380 -232 595 l-152 393 -215 0 -215 0 -227 -578z
m481 19 c23 -71 41 -134 41 -140 0 -7 -32 -11 -91 -11 -69 0 -90 3 -87 13 3 6
24 69 47 140 24 70 44 127 46 127 2 0 22 -58 44 -129z"/>
<path d="M22362 2078 c-11 -29 -115 -293 -231 -587 -116 -294 -211 -538 -211
-543 0 -4 95 -7 212 -6 l211 3 27 80 27 80 190 3 190 2 29 -85 29 -85 217 0
c120 0 218 3 218 8 0 4 -103 270 -229 592 l-228 585 -216 3 -215 2 -20 -52z
m318 -650 c0 -5 -40 -8 -90 -8 -49 0 -90 4 -90 8 0 7 73 230 86 262 5 12 93
-234 94 -262z"/>
<path d="M23140 1960 l0 -170 145 0 145 0 0 -425 0 -425 205 0 205 0 0 425 0
424 143 3 142 3 3 168 2 167 -495 0 -495 0 0 -170z"/>
<path d="M24451 2108 c-32 -84 -454 -1154 -458 -1160 -2 -5 93 -8 211 -8 l215
0 27 85 28 85 191 0 190 0 29 -85 29 -85 220 0 c171 0 218 3 214 13 -7 18
-448 1150 -454 1165 -4 9 -57 12 -219 12 -213 0 -215 0 -223 -22z m268 -550
c23 -70 41 -130 41 -133 0 -3 -40 -5 -90 -5 -64 0 -90 4 -90 12 0 26 85 267
91 260 4 -4 25 -64 48 -134z"/>
<path d="M25420 1535 l0 -595 195 0 195 0 0 210 c0 116 3 210 8 210 4 0 57
-95 117 -210 l110 -210 233 0 c184 0 232 3 226 13 -5 6 -73 115 -152 242 -79
126 -139 231 -134 233 34 11 107 71 133 108 47 69 62 119 62 214 -1 148 -60
254 -180 317 -100 54 -175 63 -513 63 l-300 0 0 -595z m575 255 c18 -17 25
-34 25 -62 0 -66 -49 -98 -151 -98 l-59 0 0 96 0 97 80 -5 c66 -4 84 -9 105
-28z"/>
<path d="M26590 1535 l0 -595 205 0 205 0 0 595 0 595 -205 0 -205 0 0 -595z"/>
<path d="M27150 1535 l0 -595 191 0 192 0 -7 283 -7 282 59 -100 c33 -55 106
-181 164 -280 l104 -180 207 -3 207 -2 0 595 0 595 -191 0 -192 0 7 -297 c5
-207 4 -293 -3 -283 -6 8 -82 142 -168 297 l-158 282 -202 1 -203 0 0 -595z"/>
<path d="M28841 2108 c-11 -30 -412 -1046 -440 -1115 l-21 -53 215 0 214 0 28
85 27 85 191 -2 190 -3 29 -82 28 -83 220 0 c172 0 219 3 215 13 -3 6 -105
269 -227 582 -122 314 -225 576 -227 583 -4 9 -57 12 -219 12 -213 0 -215 0
-223 -22z m263 -538 c20 -63 39 -123 42 -132 5 -16 -4 -18 -85 -18 -65 0 -91
4 -91 12 0 26 85 267 91 260 4 -4 23 -59 43 -122z"/>
</g>
</svg>
